<svg width="28" height="28" viewBox="0 0 28 28" fill="none" xmlns="http://www.w3.org/2000/svg">
<g clip-path="url(#clip0_2008_1080)">
<path d="M14 2.3335C20.4435 2.3335 25.6667 7.55666 25.6667 14.0002C25.6667 20.4437 20.4435 25.6668 14 25.6668C7.55654 25.6668 2.33337 20.4437 2.33337 14.0002C2.33337 7.55666 7.55654 2.3335 14 2.3335ZM14 4.66683C11.5247 4.66683 9.15072 5.65016 7.40038 7.4005C5.65004 9.15084 4.66671 11.5248 4.66671 14.0002C4.66671 16.4755 5.65004 18.8495 7.40038 20.5998C9.15072 22.3502 11.5247 23.3335 14 23.3335C16.4754 23.3335 18.8494 22.3502 20.5997 20.5998C22.35 18.8495 23.3334 16.4755 23.3334 14.0002C23.3334 11.5248 22.35 9.15084 20.5997 7.4005C18.8494 5.65016 16.4754 4.66683 14 4.66683ZM12.3445 9.05C12.554 8.83853 12.8364 8.71513 13.1338 8.70503C13.4313 8.69494 13.7214 8.79893 13.9447 8.99571C14.168 9.19249 14.3077 9.46718 14.3351 9.76356C14.3625 10.0599 14.2756 10.3556 14.0922 10.59L13.9942 10.6997L11.8615 12.8347H18.9502C19.2459 12.8376 19.5294 12.9527 19.7435 13.1566C19.9576 13.3606 20.0862 13.6383 20.1034 13.9334C20.1206 14.2286 20.0251 14.5193 19.8361 14.7468C19.6471 14.9742 19.3789 15.1214 19.0855 15.1587L18.9502 15.1668H11.8615L13.9954 17.2995C14.2068 17.509 14.3302 17.7913 14.3403 18.0888C14.3504 18.3863 14.2464 18.6764 14.0497 18.8997C13.8529 19.123 13.5782 19.2627 13.2818 19.2901C12.9854 19.3175 12.6898 19.2306 12.4554 19.0472L12.3445 18.9492L8.22037 14.825C8.0195 14.6241 7.89883 14.3568 7.881 14.0733C7.86318 13.7898 7.94941 13.5095 8.12354 13.285L8.22037 13.1753L12.3445 9.05Z" fill="url(#paint0_linear_2008_1080)"/>
</g>
<defs>
<linearGradient id="paint0_linear_2008_1080" x1="3.5655" y1="6.22239" x2="16.1689" y2="9.55816" gradientUnits="userSpaceOnUse">
<stop offset="0.00289817" stop-color="#FF77FB"/>
<stop offset="1" stop-color="#8968FF"/>
</linearGradient>
<clipPath id="clip0_2008_1080">
<rect width="28" height="28" fill="white"/>
</clipPath>
</defs>
</svg>
