<svg width="56" height="56" viewBox="0 0 56 56" fill="none" xmlns="http://www.w3.org/2000/svg">
<g clip-path="url(#clip0_2028_5465)">
<path d="M28 16.333C34.4435 16.333 39.6667 21.5562 39.6667 27.9997C39.6667 34.4432 34.4435 39.6663 28 39.6663C21.5565 39.6663 16.3334 34.4432 16.3334 27.9997C16.3334 21.5562 21.5565 16.333 28 16.333ZM28 18.6663C25.5247 18.6663 23.1507 19.6497 21.4004 21.4C19.65 23.1504 18.6667 25.5243 18.6667 27.9997C18.6667 30.475 19.65 32.849 21.4004 34.5993C23.1507 36.3497 25.5247 37.333 28 37.333C30.4754 37.333 32.8494 36.3497 34.5997 34.5993C36.35 32.849 37.3334 30.475 37.3334 27.9997C37.3334 25.5243 36.35 23.1504 34.5997 21.4C32.8494 19.6497 30.4754 18.6663 28 18.6663ZM26.3445 23.0495C26.554 22.838 26.8364 22.7146 27.1338 22.7045C27.4313 22.6945 27.7214 22.7984 27.9447 22.9952C28.168 23.192 28.3077 23.4667 28.3351 23.7631C28.3625 24.0594 28.2756 24.3551 28.0922 24.5895L27.9942 24.6992L25.8615 26.8342H32.9502C33.2459 26.8371 33.5294 26.9522 33.7435 27.1561C33.9576 27.3601 34.0862 27.6378 34.1034 27.933C34.1206 28.2282 34.0251 28.5189 33.8361 28.7463C33.6471 28.9737 33.3789 29.121 33.0855 29.1582L32.9502 29.1663H25.8615L27.9954 31.299C28.2068 31.5085 28.3302 31.7908 28.3403 32.0883C28.3504 32.3858 28.2464 32.6759 28.0497 32.8992C27.8529 33.1225 27.5782 33.2622 27.2818 33.2896C26.9854 33.317 26.6898 33.2301 26.4554 33.0467L26.3445 32.9487L22.2204 28.8245C22.0195 28.6236 21.8988 28.3563 21.881 28.0728C21.8632 27.7893 21.9494 27.509 22.1235 27.2845L22.2204 27.1748L26.3445 23.0495Z" fill="url(#paint0_linear_2028_5465)"/>
</g>
<defs>
<linearGradient id="paint0_linear_2028_5465" x1="17.5655" y1="20.2219" x2="30.1689" y2="23.5577" gradientUnits="userSpaceOnUse">
<stop offset="0.00289817" stop-color="#FF77FB"/>
<stop offset="1" stop-color="#8968FF"/>
</linearGradient>
<clipPath id="clip0_2028_5465">
<rect width="28" height="28" fill="white" transform="translate(14 14)"/>
</clipPath>
</defs>
</svg>
