<svg width="24" height="24" viewBox="0 0 24 24" fill="none" xmlns="http://www.w3.org/2000/svg">
<g clip-path="url(#clip0_2013_3221)">
<path fill-rule="evenodd" clip-rule="evenodd" d="M6.97235 3.77717C7.07814 3.69584 7.16658 3.59416 7.23246 3.47813C7.29835 3.3621 7.34034 3.23405 7.35598 3.10153C7.37161 2.96902 7.36056 2.83471 7.32349 2.70653C7.28642 2.57835 7.22406 2.45889 7.14011 2.35518C7.05615 2.25147 6.95229 2.16561 6.83464 2.10265C6.71698 2.0397 6.58792 2.00094 6.45506 1.98863C6.32219 1.97633 6.18821 1.99075 6.061 2.03102C5.93379 2.0713 5.81593 2.13663 5.71435 2.22317C4.63596 3.09532 3.74999 4.1815 3.11235 5.41317C3.04923 5.53003 3.01001 5.65829 2.997 5.79046C2.98399 5.92264 2.99743 6.05609 3.03656 6.18301C3.07568 6.30994 3.13969 6.4278 3.22487 6.52971C3.31004 6.63162 3.41465 6.71555 3.53262 6.77659C3.65058 6.83763 3.77951 6.87456 3.9119 6.88522C4.04429 6.89588 4.17748 6.88007 4.30369 6.8387C4.42989 6.79732 4.5466 6.73122 4.64698 6.64426C4.74737 6.55729 4.82942 6.45119 4.88835 6.33217C5.39901 5.34565 6.1086 4.47568 6.97235 3.77717ZM18.2864 2.22317C18.1848 2.13663 18.0669 2.0713 17.9397 2.03102C17.8125 1.99075 17.6785 1.97633 17.5457 1.98863C17.4128 2.00094 17.2837 2.0397 17.1661 2.10265C17.0484 2.16561 16.9446 2.25147 16.8606 2.35518C16.7766 2.45889 16.7143 2.57835 16.6772 2.70653C16.6401 2.83471 16.6291 2.96902 16.6447 3.10153C16.6604 3.23405 16.7024 3.3621 16.7682 3.47813C16.8341 3.59416 16.9226 3.69584 17.0284 3.77717C17.8957 4.47885 18.6074 5.3534 19.1184 6.34517C19.1785 6.46191 19.2611 6.56567 19.3613 6.65051C19.4615 6.73535 19.5775 6.79962 19.7026 6.83964C19.8277 6.87966 19.9594 6.89466 20.0903 6.88377C20.2212 6.87288 20.3486 6.83631 20.4654 6.77617C20.5821 6.71602 20.6859 6.63347 20.7707 6.53323C20.8555 6.43298 20.9198 6.31701 20.9598 6.19193C20.9998 6.06685 21.0148 5.93511 21.004 5.80424C20.9931 5.67336 20.9565 5.54591 20.8964 5.42917C20.2582 4.19102 19.3693 3.09921 18.2864 2.22317ZM5.00035 10.0002C5.00035 8.14365 5.73785 6.36317 7.05061 5.05042C8.36336 3.73767 10.1438 3.00017 12.0004 3.00017C13.8569 3.00017 15.6373 3.73767 16.9501 5.05042C18.2629 6.36317 19.0004 8.14365 19.0004 10.0002V13.7642L20.8224 17.4082C20.9062 17.5759 20.9458 17.7623 20.9374 17.9496C20.929 18.1369 20.8728 18.319 20.7742 18.4785C20.6756 18.638 20.5379 18.7697 20.3741 18.861C20.2103 18.9523 20.0259 19.0002 19.8384 19.0002H4.16235C3.97483 19.0002 3.79042 18.9523 3.62662 18.861C3.46283 18.7697 3.32509 18.638 3.2265 18.4785C3.12791 18.319 3.07173 18.1369 3.0633 17.9496C3.05488 17.7623 3.09448 17.5759 3.17835 17.4082L5.00035 13.7642V10.0002ZM9.00035 20.0002H15.0004C15.0004 20.5306 14.7896 21.0393 14.4146 21.4144C14.0395 21.7895 13.5308 22.0002 13.0004 22.0002H11.0004C10.4699 22.0002 9.96121 21.7895 9.58614 21.4144C9.21107 21.0393 9.00035 20.5306 9.00035 20.0002Z" fill="url(#paint0_linear_2013_3221)"/>
</g>
<defs>
<linearGradient id="paint0_linear_2013_3221" x1="3.94349" y1="5.32034" x2="13.7968" y2="7.66759" gradientUnits="userSpaceOnUse">
<stop offset="0.00289817" stop-color="#FF77FB"/>
<stop offset="1" stop-color="#8968FF"/>
</linearGradient>
<clipPath id="clip0_2013_3221">
<rect width="24" height="24" fill="white"/>
</clipPath>
</defs>
</svg>
