<svg width="16" height="16" viewBox="0 0 16 16" fill="none" xmlns="http://www.w3.org/2000/svg">
<g clip-path="url(#clip0_2032_4901)">
<g clip-path="url(#clip1_2032_4901)">
<path fill-rule="evenodd" clip-rule="evenodd" d="M10.6667 2.00977C10.8435 2.00977 11.013 2.08 11.1381 2.20503C11.2631 2.33005 11.3333 2.49962 11.3333 2.67643V3.3431H12.6667C13.0203 3.3431 13.3594 3.48357 13.6095 3.73362C13.8595 3.98367 14 4.32281 14 4.67643V12.6764C14 13.0301 13.8595 13.3692 13.6095 13.6192C13.3594 13.8693 13.0203 14.0098 12.6667 14.0098H3.33333C2.97971 14.0098 2.64057 13.8693 2.39052 13.6192C2.14048 13.3692 2 13.0301 2 12.6764V4.67643C2 4.32281 2.14048 3.98367 2.39052 3.73362C2.64057 3.48357 2.97971 3.3431 3.33333 3.3431H4.66667V2.67643C4.66667 2.49962 4.7369 2.33005 4.86193 2.20503C4.98695 2.08 5.15652 2.00977 5.33333 2.00977C5.51014 2.00977 5.67971 2.08 5.80474 2.20503C5.92976 2.33005 6 2.49962 6 2.67643V3.3431H10V2.67643C10 2.49962 10.0702 2.33005 10.1953 2.20503C10.3203 2.08 10.4899 2.00977 10.6667 2.00977ZM5.34 10.6764H5.33333C5.16341 10.6766 4.99998 10.7417 4.87642 10.8583C4.75286 10.975 4.67851 11.1344 4.66855 11.304C4.65859 11.4737 4.71378 11.6407 4.82284 11.771C4.9319 11.9013 5.0866 11.985 5.25533 12.0051L5.34 12.0098C5.51681 12.0098 5.68638 11.9395 5.8114 11.8145C5.93643 11.6895 6.00667 11.5199 6.00667 11.3431C6.00667 11.1663 5.93643 10.9967 5.8114 10.8717C5.68638 10.7467 5.51681 10.6764 5.34 10.6764ZM8.00667 10.6764H8C7.83008 10.6766 7.66665 10.7417 7.54309 10.8583C7.41953 10.975 7.34518 11.1344 7.33522 11.304C7.32526 11.4737 7.38045 11.6407 7.48951 11.771C7.59857 11.9013 7.75327 11.985 7.922 12.0051L8.00667 12.0098C8.18348 12.0098 8.35305 11.9395 8.47807 11.8145C8.6031 11.6895 8.67333 11.5199 8.67333 11.3431C8.67333 11.1663 8.6031 10.9967 8.47807 10.8717C8.35305 10.7467 8.18348 10.6764 8.00667 10.6764ZM10.6733 10.6764H10.6667C10.4967 10.6766 10.3333 10.7417 10.2098 10.8583C10.0862 10.975 10.0118 11.1344 10.0019 11.304C9.99193 11.4737 10.0471 11.6407 10.1562 11.771C10.2652 11.9013 10.4199 11.985 10.5887 12.0051L10.6733 12.0098C10.8501 12.0098 11.0197 11.9395 11.1447 11.8145C11.2698 11.6895 11.34 11.5199 11.34 11.3431C11.34 11.1663 11.2698 10.9967 11.1447 10.8717C11.0197 10.7467 10.8501 10.6764 10.6733 10.6764ZM5.34 8.00977H5.33333C5.16341 8.00995 4.99998 8.07502 4.87642 8.19166C4.75286 8.30831 4.67851 8.46773 4.66855 8.63736C4.65859 8.80699 4.71378 8.97402 4.82284 9.10432C4.9319 9.23462 5.0866 9.31836 5.25533 9.33843L5.34 9.3431C5.51681 9.3431 5.68638 9.27286 5.8114 9.14784C5.93643 9.02281 6.00667 8.85324 6.00667 8.67643C6.00667 8.49962 5.93643 8.33005 5.8114 8.20503C5.68638 8.08 5.51681 8.00977 5.34 8.00977ZM8.00667 8.00977H8C7.83008 8.00995 7.66665 8.07502 7.54309 8.19166C7.41953 8.30831 7.34518 8.46773 7.33522 8.63736C7.32526 8.80699 7.38045 8.97402 7.48951 9.10432C7.59857 9.23462 7.75327 9.31836 7.922 9.33843L8.00667 9.3431C8.18348 9.3431 8.35305 9.27286 8.47807 9.14784C8.6031 9.02281 8.67333 8.85324 8.67333 8.67643C8.67333 8.49962 8.6031 8.33005 8.47807 8.20503C8.35305 8.08 8.18348 8.00977 8.00667 8.00977ZM10.6733 8.00977H10.6667C10.4967 8.00995 10.3333 8.07502 10.2098 8.19166C10.0862 8.30831 10.0118 8.46773 10.0019 8.63736C9.99193 8.80699 10.0471 8.97402 10.1562 9.10432C10.2652 9.23462 10.4199 9.31836 10.5887 9.33843L10.6733 9.3431C10.8501 9.3431 11.0197 9.27286 11.1447 9.14784C11.2698 9.02281 11.34 8.85324 11.34 8.67643C11.34 8.49962 11.2698 8.33005 11.1447 8.20503C11.0197 8.08 10.8501 8.00977 10.6733 8.00977ZM12.6667 4.67643H3.33333V6.00977H12.6667V4.67643Z" fill="url(#paint0_linear_2032_4901)"/>
</g>
</g>
<defs>
<linearGradient id="paint0_linear_2032_4901" x1="2.63366" y1="4.00977" x2="9.11539" y2="5.7253" gradientUnits="userSpaceOnUse">
<stop offset="0.00289817" stop-color="#FF77FB"/>
<stop offset="1" stop-color="#8968FF"/>
</linearGradient>
<clipPath id="clip0_2032_4901">
<rect width="16" height="16" fill="white" transform="translate(0 0.00976562)"/>
</clipPath>
<clipPath id="clip1_2032_4901">
<rect width="16" height="16" fill="white" transform="translate(0 0.00976562)"/>
</clipPath>
</defs>
</svg>
