<svg width="16" height="16" viewBox="0 0 16 16" fill="none" xmlns="http://www.w3.org/2000/svg">
<path d="M8 0C12.4184 0 16 3.5816 16 8C16 12.4184 12.4184 16 8 16C3.5816 16 0 12.4184 0 8C0 3.5816 3.5816 0 8 0ZM10.828 5.1048L6.868 9.0648L5.172 7.368C5.09772 7.29367 5.00954 7.2347 4.91247 7.19446C4.8154 7.15421 4.71136 7.13348 4.60628 7.13344C4.39407 7.13336 4.19051 7.21759 4.0404 7.3676C3.89029 7.51761 3.80591 7.7211 3.80584 7.93332C3.80576 8.14553 3.88999 8.34909 4.04 8.4992L6.2464 10.7056C6.32812 10.7874 6.42515 10.8522 6.53194 10.8965C6.63874 10.9407 6.7532 10.9635 6.8688 10.9635C6.9844 10.9635 7.09886 10.9407 7.20566 10.8965C7.31245 10.8522 7.40948 10.7874 7.4912 10.7056L11.96 6.2368C12.1101 6.08669 12.1944 5.88309 12.1944 5.6708C12.1944 5.45851 12.1101 5.25491 11.96 5.1048C11.8099 4.95469 11.6063 4.87036 11.394 4.87036C11.1817 4.87036 10.9781 4.95469 10.828 5.1048Z" fill="url(#paint0_linear_2074_5507)"/>
<defs>
<linearGradient id="paint0_linear_2074_5507" x1="0.844884" y1="2.66667" x2="9.48719" y2="4.95405" gradientUnits="userSpaceOnUse">
<stop offset="0.00289817" stop-color="#FF77FB"/>
<stop offset="1" stop-color="#8968FF"/>
</linearGradient>
</defs>
</svg>
