<svg width="16" height="16" viewBox="0 0 16 16" fill="none" xmlns="http://www.w3.org/2000/svg">
<g clip-path="url(#clip0_2074_5665)">
<path d="M7.99992 1.34302C11.6819 1.34302 14.6666 4.32768 14.6666 8.00968C14.6666 11.6917 11.6819 14.6763 7.99992 14.6763C4.31792 14.6763 1.33325 11.6917 1.33325 8.00968C1.33325 4.32768 4.31792 1.34302 7.99992 1.34302ZM7.99992 4.00968C7.82311 4.00968 7.65354 4.07992 7.52851 4.20495C7.40349 4.32997 7.33325 4.49954 7.33325 4.67635V8.00968C7.33329 8.18648 7.40355 8.35602 7.52858 8.48102L9.52858 10.481C9.65432 10.6025 9.82272 10.6697 9.99752 10.6681C10.1723 10.6666 10.3395 10.5965 10.4631 10.4729C10.5867 10.3493 10.6568 10.1821 10.6584 10.0073C10.6599 9.83249 10.5927 9.66409 10.4713 9.53835L8.66658 7.73368V4.67635C8.66658 4.49954 8.59635 4.32997 8.47132 4.20495C8.3463 4.07992 8.17673 4.00968 7.99992 4.00968Z" fill="url(#paint0_linear_2074_5665)"/>
</g>
<defs>
<linearGradient id="paint0_linear_2074_5665" x1="2.03732" y1="3.56524" x2="9.23924" y2="5.47139" gradientUnits="userSpaceOnUse">
<stop offset="0.00289817" stop-color="#FF77FB"/>
<stop offset="1" stop-color="#8968FF"/>
</linearGradient>
<clipPath id="clip0_2074_5665">
<rect width="16" height="16" fill="white" transform="translate(0 0.00976562)"/>
</clipPath>
</defs>
</svg>
