<svg width="25" height="24" viewBox="0 0 25 24" fill="none" xmlns="http://www.w3.org/2000/svg">
<g clip-path="url(#clip0_2011_1954)">
<path d="M12.5 2C18.023 2 22.5 6.477 22.5 12C22.5 17.523 18.023 22 12.5 22C6.977 22 2.5 17.523 2.5 12C2.5 6.477 6.977 2 12.5 2ZM10.379 8.464C10.1995 8.28275 9.95743 8.17697 9.70245 8.16832C9.44748 8.15967 9.19883 8.2488 9.00742 8.41747C8.81601 8.58613 8.6963 8.82159 8.6728 9.07562C8.64929 9.32966 8.72378 9.58308 8.881 9.784L8.965 9.879L11.085 11.999L8.965 14.121C8.78375 14.3005 8.67797 14.5426 8.66932 14.7975C8.66067 15.0525 8.7498 15.3012 8.91847 15.4926C9.08713 15.684 9.32258 15.8037 9.57662 15.8272C9.83066 15.8507 10.0841 15.7762 10.285 15.619L10.379 15.536L12.5 13.414L14.621 15.536C14.8005 15.7173 15.0426 15.823 15.2975 15.8317C15.5525 15.8403 15.8012 15.7512 15.9926 15.5825C16.184 15.4139 16.3037 15.1784 16.3272 14.9244C16.3507 14.6703 16.2762 14.4169 16.119 14.216L16.036 14.121L13.914 12L16.036 9.879C16.2173 9.69946 16.323 9.45743 16.3317 9.20245C16.3403 8.94748 16.2512 8.69883 16.0825 8.50742C15.9139 8.31601 15.6784 8.1963 15.4244 8.1728C15.1703 8.14929 14.9169 8.22378 14.716 8.381L14.621 8.464L12.5 10.586L10.379 8.464Z" fill="url(#paint0_linear_2011_1954)"/>
</g>
<defs>
<linearGradient id="paint0_linear_2011_1954" x1="3.55611" y1="5.33333" x2="14.359" y2="8.19256" gradientUnits="userSpaceOnUse">
<stop offset="0.00289817" stop-color="#FF77FB"/>
<stop offset="1" stop-color="#8968FF"/>
</linearGradient>
<clipPath id="clip0_2011_1954">
<rect width="24" height="24" fill="white" transform="translate(0.5)"/>
</clipPath>
</defs>
</svg>
