<svg width="32" height="32" viewBox="0 0 32 32" fill="none" xmlns="http://www.w3.org/2000/svg">
<g clip-path="url(#clip0_2028_5345)">
<path d="M26.6666 4C27.3739 4 28.0521 4.28095 28.5522 4.78105C29.0523 5.28115 29.3333 5.95942 29.3333 6.66667V25.3333C29.3333 26.0406 29.0523 26.7189 28.5522 27.219C28.0521 27.719 27.3739 28 26.6666 28H5.33329C4.62605 28 3.94777 27.719 3.44767 27.219C2.94758 26.7189 2.66663 26.0406 2.66663 25.3333V6.66667C2.66663 5.95942 2.94758 5.28115 3.44767 4.78105C3.94777 4.28095 4.62605 4 5.33329 4H26.6666ZM26.6666 6.66667H5.33329V20.1333L11.9933 13.4747C12.1481 13.3199 12.3318 13.1971 12.5341 13.1133C12.7363 13.0295 12.9531 12.9864 13.172 12.9864C13.3909 12.9864 13.6076 13.0295 13.8099 13.1133C14.0121 13.1971 14.1959 13.3199 14.3506 13.4747L19.7706 18.896L21.4213 17.2453C21.5761 17.0905 21.7598 16.9677 21.962 16.8839C22.1643 16.8001 22.3811 16.757 22.6 16.757C22.8189 16.757 23.0356 16.8001 23.2379 16.8839C23.4401 16.9677 23.6239 17.0905 23.7786 17.2453L26.6666 20.1347V6.66667ZM20.6666 9.33333C21.1971 9.33333 21.7058 9.54405 22.0808 9.91912C22.4559 10.2942 22.6666 10.8029 22.6666 11.3333C22.6666 11.8638 22.4559 12.3725 22.0808 12.7475C21.7058 13.1226 21.1971 13.3333 20.6666 13.3333C20.1362 13.3333 19.6275 13.1226 19.2524 12.7475C18.8773 12.3725 18.6666 11.8638 18.6666 11.3333C18.6666 10.8029 18.8773 10.2942 19.2524 9.91912C19.6275 9.54405 20.1362 9.33333 20.6666 9.33333Z" fill="#BF90FF"/>
</g>
<defs>
<clipPath id="clip0_2028_5345">
<rect width="32" height="32" fill="white"/>
</clipPath>
</defs>
</svg>
