<svg width="20" height="20" viewBox="0 0 20 20" fill="none" xmlns="http://www.w3.org/2000/svg">
<g clip-path="url(#clip0_2074_5638)">
<path d="M5.47496 4.63591C5.35787 4.72959 5.26335 4.84842 5.19839 4.98358C5.13343 5.11874 5.0997 5.26678 5.0997 5.41674C5.0997 5.5667 5.13343 5.71474 5.19839 5.84991C5.26335 5.98507 5.35787 6.10389 5.47496 6.19758L9.2083 9.18424C9.8633 9.70758 10.8333 9.24258 10.8333 8.40341V7.08341C10.8334 6.86794 10.7501 6.6608 10.6008 6.50545C10.4515 6.3501 10.2478 6.25862 10.0325 6.25021C9.81718 6.2418 9.60699 6.31711 9.44602 6.46034C9.28505 6.60357 9.18581 6.80359 9.16913 7.01841L7.16746 5.41674L9.16663 3.81674V4.16674C9.16663 4.38776 9.25443 4.59972 9.41071 4.756C9.56699 4.91228 9.77895 5.00008 9.99996 5.00008C11.4029 4.99989 12.7589 5.50524 13.8195 6.42354C14.8802 7.34183 15.5744 8.61156 15.775 10.0001H15C14.779 10.0001 14.567 10.0879 14.4107 10.2442C14.2544 10.4004 14.1666 10.6124 14.1666 10.8334C14.1666 11.0544 14.2544 11.2664 14.4107 11.4227C14.567 11.5789 14.779 11.6667 15 11.6667H15.775C15.5948 12.9134 15.0161 14.0683 14.1255 14.9589C13.2348 15.8496 12.0799 16.4282 10.8333 16.6084V15.0001C10.8333 14.7791 10.7455 14.5671 10.5892 14.4108C10.4329 14.2545 10.221 14.1667 9.99996 14.1667C9.77895 14.1667 9.56699 14.2545 9.41071 14.4108C9.25443 14.5671 9.16663 14.7791 9.16663 15.0001V16.6084C7.92 16.4282 6.76511 15.8496 5.87445 14.9589C4.98379 14.0683 4.40515 12.9134 4.22496 11.6667H4.99996C5.22098 11.6667 5.43294 11.5789 5.58922 11.4227C5.7455 11.2664 5.8333 11.0544 5.8333 10.8334C5.8333 10.6124 5.7455 10.4004 5.58922 10.2442C5.43294 10.0879 5.22098 10.0001 4.99996 10.0001H4.22496C4.2933 9.52758 4.41663 9.07424 4.58996 8.64591C4.63505 8.5438 4.65916 8.43367 4.66087 8.32206C4.66257 8.21045 4.64184 8.09963 4.5999 7.99619C4.55796 7.89275 4.49566 7.79878 4.41671 7.71988C4.33775 7.64097 4.24375 7.57874 4.14028 7.53686C4.03682 7.49498 3.92599 7.47431 3.81438 7.47609C3.70277 7.47786 3.59266 7.50204 3.49057 7.54719C3.38849 7.59234 3.29651 7.65754 3.22011 7.73891C3.14371 7.82029 3.08443 7.91618 3.0458 8.02091C2.45698 9.47695 2.34012 11.0811 2.71171 12.6071C3.0833 14.1331 3.92459 15.504 5.1169 16.5263C6.30922 17.5486 7.7924 18.1708 9.35723 18.3052C10.9221 18.4395 12.4896 18.0792 13.8387 17.2751C15.1879 16.471 16.2505 15.2636 16.8768 13.8232C17.503 12.3829 17.6613 10.7823 17.3293 9.24721C16.9973 7.71211 16.1917 6.31997 15.0262 5.26716C13.8607 4.21435 12.3941 3.554 10.8333 3.37924V2.43008C10.8333 1.59174 9.8633 1.12591 9.2083 1.64924L5.47496 4.63591Z" fill="url(#paint0_linear_2074_5638)"/>
</g>
<defs>
<linearGradient id="paint0_linear_2074_5638" x1="3.29086" y1="4.24584" x2="11.5074" y2="6.17556" gradientUnits="userSpaceOnUse">
<stop offset="0.00289817" stop-color="#FF77FB"/>
<stop offset="1" stop-color="#8968FF"/>
</linearGradient>
<clipPath id="clip0_2074_5638">
<rect width="20" height="20" fill="white"/>
</clipPath>
</defs>
</svg>
