<svg width="16" height="16" viewBox="0 0 16 16" fill="none" xmlns="http://www.w3.org/2000/svg">
<g clip-path="url(#clip0_2032_4895)">
<path d="M4.48008 11.1028C4.64982 11.0533 4.83227 11.0732 4.9873 11.1582C5.14233 11.2432 5.25724 11.3864 5.30675 11.5561C5.35626 11.7258 5.33631 11.9083 5.25129 12.0633C5.16627 12.2184 5.02315 12.3333 4.85342 12.3828C4.52008 12.4801 4.28008 12.5828 4.12608 12.6761C4.28475 12.7714 4.53541 12.8781 4.88341 12.9774C5.65341 13.1974 6.75541 13.3428 8.00008 13.3428C9.24475 13.3428 10.3467 13.1974 11.1167 12.9774C11.4654 12.8781 11.7154 12.7714 11.8741 12.6761C11.7207 12.5828 11.4807 12.4801 11.1474 12.3828C10.9803 12.3311 10.8403 12.2158 10.7574 12.0618C10.6745 11.9078 10.6555 11.7274 10.7044 11.5595C10.7533 11.3916 10.8662 11.2496 11.0187 11.1642C11.1713 11.0788 11.3514 11.0567 11.5201 11.1028C11.9654 11.2328 12.3734 11.3994 12.6867 11.6134C12.9767 11.8128 13.3334 12.1601 13.3334 12.6761C13.3334 13.1981 12.9681 13.5481 12.6734 13.7474C12.3547 13.9621 11.9381 14.1294 11.4827 14.2594C10.5641 14.5228 9.33342 14.6761 8.00008 14.6761C6.66675 14.6761 5.43608 14.5228 4.51741 14.2594C4.06208 14.1294 3.64541 13.9621 3.32675 13.7474C3.03208 13.5474 2.66675 13.1981 2.66675 12.6761C2.66675 12.1601 3.02341 11.8128 3.31341 11.6134C3.62675 11.3994 4.03475 11.2328 4.48008 11.1028ZM8.00008 1.34277C9.32616 1.34277 10.5979 1.86956 11.5356 2.80724C12.4733 3.74492 13.0001 5.01669 13.0001 6.34277C13.0001 8.05477 12.0667 9.44677 11.1001 10.4361C10.7158 10.8254 10.3029 11.1853 9.86475 11.5128C9.46875 11.8101 8.56342 12.3674 8.56342 12.3674C8.39171 12.465 8.19759 12.5164 8.00008 12.5164C7.80257 12.5164 7.60846 12.465 7.43675 12.3674C6.98726 12.1072 6.55279 11.8219 6.13541 11.5128C5.69711 11.1855 5.28416 10.8256 4.90008 10.4361C3.93341 9.44677 3.00008 8.05477 3.00008 6.34277C3.00008 5.01669 3.52687 3.74492 4.46455 2.80724C5.40223 1.86956 6.674 1.34277 8.00008 1.34277ZM8.00008 2.67611C7.02762 2.67611 6.09499 3.06242 5.40736 3.75005C4.71972 4.43768 4.33341 5.37031 4.33341 6.34277C4.33341 7.55344 4.99741 8.62811 5.85341 9.50277C6.49741 10.1614 7.20675 10.6628 7.69808 10.9708L8.00008 11.1534L8.30208 10.9708C8.79275 10.6628 9.50275 10.1614 10.1467 9.50344C11.0027 8.62811 11.6667 7.55411 11.6667 6.34277C11.6667 5.37031 11.2804 4.43768 10.5928 3.75005C9.90517 3.06242 8.97254 2.67611 8.00008 2.67611ZM8.00008 4.34277C8.26273 4.34277 8.5228 4.39451 8.76545 4.49501C9.0081 4.59552 9.22858 4.74284 9.4143 4.92856C9.60001 5.11428 9.74733 5.33476 9.84784 5.57741C9.94835 5.82006 10.0001 6.08013 10.0001 6.34277C10.0001 6.60542 9.94835 6.86549 9.84784 7.10814C9.74733 7.35079 9.60001 7.57127 9.4143 7.75699C9.22858 7.9427 9.0081 8.09002 8.76545 8.19053C8.5228 8.29104 8.26273 8.34277 8.00008 8.34277C7.46965 8.34277 6.96094 8.13206 6.58587 7.75699C6.21079 7.38191 6.00008 6.87321 6.00008 6.34277C6.00008 5.81234 6.21079 5.30363 6.58587 4.92856C6.96094 4.55349 7.46965 4.34277 8.00008 4.34277ZM8.00008 5.67611C7.82327 5.67611 7.6537 5.74634 7.52868 5.87137C7.40365 5.99639 7.33342 6.16596 7.33342 6.34277C7.33342 6.51958 7.40365 6.68915 7.52868 6.81418C7.6537 6.9392 7.82327 7.00944 8.00008 7.00944C8.17689 7.00944 8.34646 6.9392 8.47149 6.81418C8.59651 6.68915 8.66675 6.51958 8.66675 6.34277C8.66675 6.16596 8.59651 5.99639 8.47149 5.87137C8.34646 5.74634 8.17689 5.67611 8.00008 5.67611Z" fill="url(#paint0_linear_2032_4895)"/>
</g>
<defs>
<linearGradient id="paint0_linear_2032_4895" x1="3.23" y1="3.565" x2="9.1306" y2="4.81438" gradientUnits="userSpaceOnUse">
<stop offset="0.00289817" stop-color="#FF77FB"/>
<stop offset="1" stop-color="#8968FF"/>
</linearGradient>
<clipPath id="clip0_2032_4895">
<rect width="16" height="16" fill="white" transform="translate(0 0.00976562)"/>
</clipPath>
</defs>
</svg>
