<svg width="65" height="59" viewBox="0 0 65 59" fill="none" xmlns="http://www.w3.org/2000/svg">
<g filter="url(#filter0_d_2076_3657)">
<rect x="24" y="18" width="40" height="40" rx="20" fill="#E7D5FF" shape-rendering="crispEdges"/>
<g clip-path="url(#clip0_2076_3657)">
<path d="M34.6667 34.4998C34.9524 34.4998 35.2282 34.6047 35.4418 34.7946C35.6553 34.9845 35.7917 35.2462 35.8252 35.5299L35.8333 35.6664V36.8331C35.8333 38.6442 36.5352 40.3849 37.7915 41.6893C39.0479 42.9938 40.761 43.7605 42.5708 43.8284L42.8333 43.8331H47.017L46.0918 42.9079C45.8826 42.698 45.7611 42.4163 45.7521 42.12C45.743 41.8237 45.8471 41.5351 46.0431 41.3128C46.2392 41.0905 46.5125 40.9511 46.8076 40.923C47.1026 40.8949 47.3973 40.9801 47.6318 41.1614L47.7415 41.2583L50.6582 44.1749C50.834 44.35 50.949 44.577 50.986 44.8224L51 45.0114C50.9979 45.268 50.9109 45.5165 50.7527 45.7184L50.6535 45.8293L47.7415 48.7413C47.5315 48.9505 47.2498 49.072 46.9536 49.081C46.6573 49.0901 46.3687 48.986 46.1463 48.79C45.924 48.5939 45.7846 48.3206 45.7565 48.0256C45.7284 47.7305 45.8137 47.4358 45.995 47.2013L46.0918 47.0916L47.017 46.1664H42.8333C40.4085 46.1664 38.0789 45.2227 36.3377 43.5351C34.5965 41.8474 33.5804 39.5484 33.5047 37.1248L33.5 36.8331V35.6664C33.5 35.357 33.6229 35.0603 33.8417 34.8415C34.0605 34.6227 34.3572 34.4998 34.6667 34.4998ZM40.2585 27.2583C40.4685 27.049 40.7502 26.9276 41.0464 26.9185C41.3427 26.9095 41.6313 27.0135 41.8537 27.2096C42.076 27.4056 42.2154 27.6789 42.2435 27.974C42.2716 28.2691 42.1863 28.5638 42.005 28.7983L41.9082 28.9079L40.983 29.8331H45.1667C47.5915 29.8331 49.9211 30.7769 51.6623 32.4645C53.4035 34.1521 54.4196 36.4511 54.4953 38.8748L54.5 39.1664V40.3331C54.4997 40.6305 54.3858 40.9165 54.1817 41.1327C53.9775 41.3489 53.6986 41.4791 53.4017 41.4965C53.1049 41.5139 52.8126 41.4173 52.5845 41.2265C52.3565 41.0356 52.21 40.7649 52.1748 40.4696L52.1667 40.3331V39.1664C52.1667 37.3553 51.4648 35.6147 50.2085 34.3102C48.9521 33.0058 47.239 32.239 45.4292 32.1711L45.1667 32.1664H40.983L41.9082 33.0916C42.1174 33.3016 42.2389 33.5833 42.2479 33.8796C42.257 34.1758 42.1529 34.4644 41.9569 34.6868C41.7608 34.9091 41.4875 35.0485 41.1924 35.0766C40.8974 35.1047 40.6027 35.0194 40.3682 34.8381L40.2585 34.7413L37.3418 31.8246C37.141 31.6237 37.0203 31.3564 37.0025 31.0729C36.9846 30.7894 37.0709 30.5091 37.245 30.2846L37.3418 30.1749L40.2585 27.2583Z" fill="url(#paint0_linear_2076_3657)"/>
</g>
</g>
<defs>
<filter id="filter0_d_2076_3657" x="0" y="0" width="88" height="88" filterUnits="userSpaceOnUse" color-interpolation-filters="sRGB">
<feFlood flood-opacity="0" result="BackgroundImageFix"/>
<feColorMatrix in="SourceAlpha" type="matrix" values="0 0 0 0 0 0 0 0 0 0 0 0 0 0 0 0 0 0 127 0" result="hardAlpha"/>
<feOffset dy="6"/>
<feGaussianBlur stdDeviation="12"/>
<feComposite in2="hardAlpha" operator="out"/>
<feColorMatrix type="matrix" values="0 0 0 0 0 0 0 0 0 0 0 0 0 0 0 0 0 0 0.15 0"/>
<feBlend mode="normal" in2="BackgroundImageFix" result="effect1_dropShadow_2076_3657"/>
<feBlend mode="normal" in="SourceGraphic" in2="effect1_dropShadow_2076_3657" result="shape"/>
</filter>
<linearGradient id="paint0_linear_2076_3657" x1="34.6089" y1="30.6119" x2="46.0284" y2="33.4756" gradientUnits="userSpaceOnUse">
<stop offset="0.00289817" stop-color="#FF77FB"/>
<stop offset="1" stop-color="#8968FF"/>
</linearGradient>
<clipPath id="clip0_2076_3657">
<rect width="28" height="28" fill="white" transform="translate(30 24)"/>
</clipPath>
</defs>
</svg>
