<svg width="16" height="16" viewBox="0 0 16 16" fill="none" xmlns="http://www.w3.org/2000/svg">
<path fill-rule="evenodd" clip-rule="evenodd" d="M7.31662 2.01145C7.35564 2.18384 7.32461 2.36467 7.23035 2.51418C7.13609 2.6637 6.98631 2.76967 6.81395 2.80879C6.68312 2.83851 6.55347 2.8732 6.42528 2.91279C6.34163 2.93861 6.25371 2.94771 6.16654 2.93956C6.07937 2.93141 5.99467 2.90617 5.91725 2.86528C5.83984 2.82439 5.77124 2.76865 5.71537 2.70125C5.65949 2.63385 5.61744 2.5561 5.59162 2.47245C5.56579 2.3888 5.55669 2.30088 5.56484 2.21371C5.57299 2.12654 5.59824 2.04184 5.63912 1.96442C5.68001 1.88701 5.73575 1.81841 5.80315 1.76253C5.87055 1.70666 5.9483 1.66461 6.03195 1.63879C6.19195 1.58945 6.35462 1.54545 6.51862 1.50879C6.60402 1.48936 6.69241 1.48696 6.77875 1.50171C6.86508 1.51647 6.94766 1.54809 7.02177 1.59477C7.09588 1.64145 7.16006 1.70228 7.21065 1.77377C7.26124 1.84527 7.29725 1.92603 7.31662 2.01145ZM8.68328 2.01145C8.7224 1.83909 8.82837 1.68931 8.97788 1.59505C9.1274 1.50079 9.30823 1.46976 9.48062 1.50879C12.4499 2.18212 14.6673 4.83679 14.6673 8.01012C14.6673 11.6921 11.6819 14.6768 8.00062 14.6768C4.82662 14.6768 2.17195 12.4601 1.49862 9.49079C1.46405 9.32011 1.49765 9.14268 1.59222 8.99645C1.68678 8.85022 1.83481 8.7468 2.00465 8.7083C2.17448 8.66981 2.35264 8.69929 2.50101 8.79046C2.64939 8.88162 2.7562 9.02722 2.79862 9.19612C3.01076 10.1253 3.46802 10.9806 4.12282 11.6732C4.77761 12.3657 5.60603 12.8701 6.52187 13.1339C7.43771 13.3977 8.40751 13.4113 9.33038 13.1732C10.2532 12.9352 11.0955 12.4542 11.7694 11.7802C12.4433 11.1063 12.9243 10.2641 13.1624 9.34122C13.4005 8.41835 13.3869 7.44854 13.1231 6.5327C12.8593 5.61686 12.3549 4.78845 11.6623 4.13365C10.9698 3.47885 10.1145 3.0216 9.18528 2.80945C9.0129 2.77019 8.86316 2.66406 8.76902 2.51441C8.67488 2.36476 8.64404 2.18384 8.68328 2.01145ZM4.40928 3.15679C4.4689 3.22098 4.51529 3.29629 4.54578 3.37843C4.57627 3.46056 4.59028 3.54789 4.587 3.63544C4.58372 3.72299 4.56321 3.80903 4.52666 3.88865C4.4901 3.96827 4.43821 4.0399 4.37395 4.09945C4.27528 4.19012 4.18062 4.28545 4.08928 4.38345C3.96818 4.50947 3.80243 4.58288 3.62772 4.58789C3.45302 4.5929 3.28334 4.52911 3.15521 4.41024C3.02708 4.29138 2.95075 4.12695 2.94266 3.95236C2.93457 3.77777 2.99536 3.60699 3.11195 3.47679C3.22528 3.35412 3.34395 3.23545 3.46662 3.12145C3.53081 3.06183 3.60612 3.01545 3.68826 2.98495C3.77039 2.95446 3.85772 2.94045 3.94527 2.94373C4.03282 2.94702 4.11886 2.96752 4.19848 3.00408C4.2781 3.04063 4.34973 3.09253 4.40928 3.15679ZM7.99995 4.01012C8.17676 4.01012 8.34633 4.08036 8.47135 4.20538C8.59638 4.3304 8.66662 4.49997 8.66662 4.67679V7.73412L10.4713 9.53879C10.5927 9.66452 10.6599 9.83292 10.6584 10.0077C10.6569 10.1825 10.5868 10.3497 10.4632 10.4733C10.3396 10.5969 10.1723 10.667 9.99755 10.6686C9.82275 10.6701 9.65435 10.6029 9.52862 10.4815L7.52862 8.48145C7.40358 8.35646 7.33332 8.18692 7.33328 8.01012V4.67679C7.33328 4.49997 7.40352 4.3304 7.52854 4.20538C7.65357 4.08036 7.82314 4.01012 7.99995 4.01012ZM2.46195 5.60212C2.63088 5.65421 2.7722 5.77127 2.85484 5.92754C2.93747 6.08381 2.95466 6.26651 2.90262 6.43545C2.86304 6.56364 2.82835 6.69329 2.79862 6.82412C2.7562 6.99302 2.64939 7.13862 2.50101 7.22978C2.35264 7.32094 2.17448 7.35043 2.00465 7.31193C1.83481 7.27344 1.68678 7.17002 1.59222 7.02379C1.49765 6.87756 1.46405 6.70013 1.49862 6.52945C1.53595 6.36479 1.57928 6.20279 1.62862 6.04279C1.68071 5.87386 1.79776 5.73254 1.95404 5.6499C2.11031 5.56726 2.29301 5.55007 2.46195 5.60212Z" fill="url(#paint0_linear_2032_4910)"/>
<defs>
<linearGradient id="paint0_linear_2032_4910" x1="2.18143" y1="3.68962" x2="9.30176" y2="5.5738" gradientUnits="userSpaceOnUse">
<stop offset="0.00289817" stop-color="#FF77FB"/>
<stop offset="1" stop-color="#8968FF"/>
</linearGradient>
</defs>
</svg>
